<svg width="121" height="120" viewBox="0 0 121 120" fill="none" xmlns="http://www.w3.org/2000/svg">
<g clip-path="url(#clip0_206_963)">
<path d="M60.5 26.25C79.1396 26.25 94.25 41.3604 94.25 60C94.25 78.6396 79.1396 93.75 60.5 93.75C41.8604 93.75 26.75 78.6396 26.75 60C26.75 41.3604 41.8604 26.25 60.5 26.25Z" fill="url(#paint0_radial_206_963)"/>
<path d="M60.5 99.375C63.6067 99.375 66.125 101.893 66.125 105V110.625C66.125 113.732 63.6067 116.25 60.5 116.25C57.3933 116.25 54.875 113.732 54.875 110.625V105C54.875 101.893 57.3933 99.375 60.5 99.375ZM96.2975 87.8426L100.275 91.8201C102.472 94.0166 102.472 97.5778 100.275 99.7749C98.0784 101.972 94.5166 101.972 92.3201 99.7749L88.3426 95.7975C86.1461 93.6004 86.1461 90.0392 88.3426 87.8426C90.5392 85.6455 94.1009 85.6455 96.2975 87.8426ZM24.7024 87.8426C26.8991 85.6455 30.4607 85.6455 32.6574 87.8426C34.6851 89.8702 34.8411 93.0611 33.1253 95.2676L32.6574 95.7975L28.6799 99.7749C26.4832 101.972 22.9216 101.972 20.725 99.7749C18.6972 97.7473 18.5412 94.5565 20.257 92.35L20.725 91.8201L24.7024 87.8426ZM15.5 54.375C18.6066 54.375 21.125 56.8933 21.125 60C21.125 62.8848 18.9535 65.2622 16.156 65.5872L15.5 65.625H9.875C6.76843 65.625 4.25 63.1067 4.25 60C4.25 57.1152 6.4215 54.7378 9.21901 54.4128L9.875 54.375H15.5ZM111.125 54.375C114.232 54.375 116.75 56.8933 116.75 60C116.75 63.1067 114.232 65.625 111.125 65.625H105.5C102.393 65.625 99.875 63.1067 99.875 60C99.875 56.8933 102.393 54.375 105.5 54.375H111.125ZM20.7251 20.225C22.7528 18.1973 25.9435 18.0413 28.1501 19.757L28.6801 20.225L32.6575 24.2024C34.8542 26.3991 34.8542 29.9607 32.6575 32.1574C30.6298 34.1851 27.4391 34.3411 25.2325 32.6253L24.7026 32.1574L20.7251 28.1799C18.5284 25.9832 18.5284 22.4216 20.7251 20.225ZM100.275 20.2251C102.472 22.4217 102.472 25.9833 100.275 28.18L96.2975 32.1575C94.1004 34.3542 90.5392 34.3542 88.3426 32.1575C86.1455 29.9608 86.1455 26.3992 88.3426 24.2025L92.3201 20.2251C94.5166 18.0283 98.0778 18.0283 100.275 20.2251ZM60.5 3.75C63.6067 3.75 66.125 6.26843 66.125 9.375V15C66.125 18.1066 63.6067 20.625 60.5 20.625C57.3933 20.625 54.875 18.1066 54.875 15V9.375C54.875 6.26843 57.3933 3.75 60.5 3.75Z" fill="url(#paint1_linear_206_963)"/>
</g>
<defs>
<radialGradient id="paint0_radial_206_963" cx="0" cy="0" r="1" gradientUnits="userSpaceOnUse" gradientTransform="translate(37.0625 34.6875) rotate(43.0203) scale(78.2147)">
<stop offset="0.193671" stop-color="#FFE475"/>
<stop offset="0.529275" stop-color="#FFB029"/>
<stop offset="0.780467" stop-color="#FF9100"/>
</radialGradient>
<linearGradient id="paint1_linear_206_963" x1="3.54687" y1="3.04688" x2="117.453" y2="116.953" gradientUnits="userSpaceOnUse">
<stop offset="0.166667" stop-color="#FFE475"/>
<stop offset="0.798611" stop-color="#FFBF29"/>
</linearGradient>
<clipPath id="clip0_206_963">
<rect width="120" height="120" fill="white" transform="translate(0.5)"/>
</clipPath>
</defs>
</svg>
